<?xml version="1.0" encoding="UTF-8"?>
<svg xmlns="http://www.w3.org/2000/svg" width="185" height="93" viewBox="0 0 185 93" fill="none"> <path d="M20.6291 26.9288C22.7566 24.5448 23.444 20.4626 23.444 18.0786C23.444 14.2495 22.4211 11.7022 18.5833 11.7022C14.9992 11.7022 13.2972 14.4209 13.2972 21.9077H0C0 10.6 5.45798 0.900696 19.1807 0.900696C29.4993 0.900696 37.003 7.02399 37.003 17.5724C37.003 25.5653 34.1063 30.3333 30.3503 34.7584C26.9381 38.8406 16.6276 46.2376 16.0303 51.0056H38.0259V61.9785H0C0 43.3474 14.2382 34.0726 20.6291 26.9288Z" fill="#EA1D24"/> <path d="M59.8807 0.900696C74.4953 0.900696 78.0057 8.98345 78.0057 17.3193V45.4864C78.0057 53.8141 74.4953 61.9867 59.8807 61.9867C46.0188 61.9867 42.0911 53.9039 42.0911 45.4864V17.3193C42.0911 8.9018 46.0107 0.900696 59.8807 0.900696ZM55.3719 17.0662V45.813C55.3719 49.7319 56.0429 51.8955 59.717 51.8955C63.563 51.8955 64.7249 49.7319 64.7249 45.813V17.0662C64.7249 13.1473 63.5548 10.9837 59.717 10.9837C56.0347 10.9837 55.3719 13.1473 55.3719 17.0662Z" fill="#EA1D24"/> <path d="M107.891 19.8992V18.2337C107.891 9.14673 113.152 0.900696 125.762 0.900696C135.868 0.900696 142.717 6.90152 142.717 15.817C142.717 21.4831 141.383 26.5614 134.37 28.48C142.717 31.7294 143.969 36.3097 143.969 44.3108C143.969 56.8105 137.038 61.9785 125.598 61.9785C115.329 61.9785 107.891 56.3124 107.891 43.3147V40.4H120.582V42.6534C120.582 47.152 121.834 51.2342 125.59 51.2342C129.518 51.2342 130.68 48.8175 130.68 42.4003C130.68 36.1545 128.511 34.5706 122.162 34.5706H119.24V25.1489H121.245C127.677 25.1489 130.017 23.8998 130.017 17.2295C130.017 14.0617 128.765 10.9837 125.508 10.9837C122.505 10.9837 120.582 13.2371 120.582 16.7315V19.8992H107.891Z" fill="#EA1D24"/> <path d="M160.547 24.3556C162.749 21.8246 165.285 19.6284 170.948 19.6284C179.908 19.6284 184.556 26.462 184.556 39.623C184.556 56.7437 178.296 61.9771 166.889 61.9771C154.206 61.9771 148.879 56.3273 148.879 42.4887H161.644C161.726 49.657 163.166 51.8532 166.464 51.8532C169.761 51.8532 171.111 49.657 171.111 40.1292C171.111 32.0301 169.761 29.6706 166.292 29.6706C163.248 29.6706 162.151 31.5239 161.644 34.0549H149.55L151.243 1.41364H182.355V11.5375H161.644L160.547 24.3556Z" fill="#EA1D24"/> <path d="M98.6525 49.9766H87.8756V60.7291H98.6525V49.9766Z" fill="#EA1D24"/> <path d="M8.91157 83.8585C8.25694 85.5567 7.61868 87.0263 6.9886 88.4387C6.08848 90.3819 4.94287 92.0392 2.56166 92.0392H2.1116C1.62062 92.0392 1.18693 91.6718 1.18693 91.1575C1.18693 90.6758 1.57971 90.2757 2.0625 90.2757C2.07068 90.2757 2.07887 90.2757 2.08705 90.2757H2.41436C3.6418 90.2757 4.29643 89.6389 5.01652 88.4142L0.491387 78.1598C0.425924 78.0128 0.393193 77.8495 0.38501 77.6862C0.38501 77.1882 0.785971 76.7881 1.28513 76.7881C1.29331 76.7881 1.30149 76.7881 1.30968 76.7881C1.74337 76.7881 1.98885 76.9923 2.12796 77.3597L5.95755 86.316C6.57127 84.928 7.2259 83.189 7.75779 81.7603C8.23239 80.454 8.82156 78.7149 9.21434 77.4495C9.3289 77.0576 9.69713 76.7881 10.1145 76.7963C10.6873 76.7963 10.9982 77.1229 10.9982 77.6127C10.99 77.8087 10.9573 77.9965 10.9 78.1843C10.1799 80.3233 9.52529 82.2011 8.91157 83.8585Z" fill="#231F20"/> <path d="M25.9982 77.6865C26.0145 77.1721 26.44 76.7721 26.9556 76.7802C27.4465 76.7966 27.8475 77.1885 27.8639 77.6865V91.1169C27.8475 91.6313 27.422 92.0313 26.9065 92.0232C26.4155 92.0068 26.0145 91.6149 25.9982 91.1169V85.3692H19.2391V91.1169C19.2309 91.6231 18.8218 92.0313 18.3144 92.0395C17.8153 92.0313 17.4061 91.6231 17.4143 91.1169V77.6865C17.4061 77.1885 17.8153 76.7721 18.3144 76.7639C18.8218 76.7721 19.2309 77.1803 19.2391 77.6865V83.6955H25.9982V77.6865Z" fill="#231F20"/> <path d="M37.7631 91.0996C37.7713 91.614 37.354 92.0303 36.8385 92.0385C36.3475 92.0385 35.9384 91.6058 35.9384 91.0996V77.661C35.9384 77.1548 36.3475 76.7547 36.8467 76.7547C37.354 76.7547 37.755 77.163 37.755 77.661V87.2787L44.7841 78.951V77.661C44.7922 77.1548 45.2014 76.7466 45.7087 76.7466C46.2161 76.7629 46.617 77.163 46.6334 77.6692V91.0996C46.6334 91.6058 46.2242 92.0222 45.7087 92.0385C45.1932 92.0303 44.7841 91.614 44.7841 91.0996V81.5064L37.7631 89.8096V91.0996Z" fill="#231F20"/> <path d="M60.1594 91.8592H55.6507C55.1433 91.8592 54.7342 91.451 54.726 90.9448V90.9367V77.8736C54.7342 77.3674 55.1433 76.9592 55.6507 76.951H59.7258C62.8843 76.951 64.1118 78.6492 64.1118 80.6087V81.221C64.1118 82.6906 63.3917 83.6703 62.1642 84.1847C63.7599 84.6746 64.7255 85.8829 64.7255 87.475V88.0301C64.7255 90.2427 63.5635 91.8592 60.1594 91.8592ZM62.2706 80.8128C62.2706 79.5881 61.5505 78.6901 59.7094 78.6901H56.5753V83.5152H58.8093C60.8795 83.5152 62.2706 83.0009 62.2706 81.4088V80.8128ZM62.9089 87.377C62.9089 85.989 61.7633 85.1726 59.8321 85.1726H56.5753V90.1365H60.1431C62.2952 90.1365 62.9089 89.1731 62.9089 87.8668V87.377Z" fill="#231F20"/> <path d="M80.347 91.8592H73.2115C72.7287 91.8592 72.336 91.4755 72.336 90.9938V90.9856V77.8409C72.336 77.3592 72.7287 76.9673 73.2197 76.9592H80.0442C80.5352 76.9592 80.928 77.3511 80.9444 77.8409C80.9362 78.3308 80.5352 78.7227 80.0442 78.7227H74.1771V83.5723H79.5042C79.9788 83.5397 80.3879 83.9071 80.4125 84.3806C80.437 84.8541 80.077 85.2624 79.6024 85.2868C79.5696 85.2868 79.5287 85.2868 79.496 85.2868H74.1689V90.112H80.3388C80.8216 90.112 81.2226 90.5039 81.2226 90.9938C81.2226 91.4836 80.8298 91.851 80.347 91.8592Z" fill="#231F20"/> <path d="M93.8318 85.9482H90.6323V91.1163C90.6323 91.6225 90.2232 92.0389 89.7076 92.0389C89.1921 92.0389 88.783 91.6306 88.783 91.1163V77.8736C88.7911 77.3674 89.2003 76.9592 89.7076 76.951H93.619C97.1213 76.951 98.3324 79.033 98.3324 80.9761V82.0211C98.3406 84.3317 96.6794 85.9482 93.8318 85.9482ZM96.5158 81.0006C96.5158 79.9392 95.8612 78.6901 93.5045 78.6901H90.6323V84.2745H93.7663C95.6893 84.2745 96.5158 83.2131 96.5158 81.9885V81.0006Z" fill="#231F20"/> <path d="M110.59 78.4458C108.217 78.4458 107.129 80.0623 107.129 83.2464V85.5815C107.129 88.9125 108.135 90.3658 110.467 90.3658C111.285 90.3658 112.104 90.1617 112.758 89.6473C113.11 89.4024 113.274 89.2391 113.577 89.2391C114.051 89.2228 114.354 89.6065 114.354 90.0392C114.354 90.2841 114.256 90.5128 114.027 90.7332C113.086 91.7129 111.605 92.0395 110.459 92.0395C106.67 92.0395 105.255 89.4432 105.255 85.5978V83.2056C105.255 79.5235 106.711 76.7639 110.582 76.7639C111.809 76.7639 113.168 77.115 114.002 77.9886C114.248 78.2172 114.354 78.4376 114.354 78.6825C114.338 79.1479 113.945 79.5153 113.479 79.499C113.192 79.5153 113.045 79.3357 112.717 79.0908C112.169 78.6499 111.449 78.4458 110.59 78.4458Z" fill="#231F20"/> <path d="M123.953 91.1014C123.953 91.6158 123.544 92.0322 123.029 92.0403C122.538 92.0403 122.129 91.6076 122.129 91.1014V77.6628C122.112 77.1566 122.513 76.7403 123.012 76.7239C123.52 76.7076 123.937 77.1077 123.953 77.6057C123.953 77.622 123.953 77.6383 123.953 77.6628V87.2805L130.983 78.9528V77.6628C130.991 77.1566 131.4 76.7484 131.907 76.7484C132.415 76.7648 132.816 77.1648 132.832 77.671V91.1014C132.824 91.6076 132.423 92.024 131.907 92.0403C131.392 92.0322 130.983 91.6158 130.983 91.1014V81.5083L123.953 89.8114V91.1014Z" fill="#231F20"/> <path d="M146 78.7074V91.1173C146.008 91.6153 145.599 92.0317 145.1 92.0399C144.592 92.0317 144.183 91.6235 144.183 91.1173V78.7074H140.313C139.797 78.7074 139.412 78.34 139.412 77.8501C139.412 77.3358 139.805 76.9684 140.313 76.9684H149.903C150.386 76.9684 150.77 77.3603 150.77 77.8338C150.77 78.3073 150.378 78.6992 149.903 78.6992H146V78.7074Z" fill="#231F20"/> <path d="M165.368 91.8592H158.232C157.749 91.8592 157.357 91.4755 157.348 90.9938C157.348 90.9856 157.348 90.9857 157.348 90.9775V77.8328C157.348 77.3511 157.741 76.9592 158.232 76.951H165.057C165.548 76.951 165.94 77.3429 165.957 77.8328C165.949 78.3227 165.548 78.7146 165.057 78.7146H159.198V83.5642H164.525C164.999 83.5316 165.409 83.899 165.433 84.3725C165.466 84.846 165.098 85.2542 164.623 85.2787C164.59 85.2787 164.549 85.2787 164.517 85.2787H159.19V90.1039H165.36C165.842 90.1039 166.243 90.4958 166.243 90.9856C166.243 91.4755 165.859 91.8511 165.368 91.8592Z" fill="#231F20"/> <path d="M178.486 78.7074V91.1173C178.494 91.6153 178.085 92.0317 177.585 92.0399C177.078 92.0317 176.669 91.6235 176.661 91.1173V78.7074H172.79C172.275 78.7074 171.89 78.34 171.89 77.8501C171.89 77.3358 172.283 76.9684 172.79 76.9684H182.381C182.863 76.9684 183.248 77.3603 183.248 77.8338C183.248 78.3073 182.855 78.6992 182.381 78.6992H178.486V78.7074Z" fill="#231F20"/> <script xmlns=""/></svg>