<svg width="102" height="48" viewBox="0 0 102 48" fill="none" xmlns="http://www.w3.org/2000/svg">
<path fill-rule="evenodd" clip-rule="evenodd" d="M49.2564 0H44.1447L43.9027 22.9174C43.9461 24.3381 42.662 25.8395 41.5268 25.8395H24.4608C21.2722 25.8519 19.3243 22.57 19.3367 19.375C19.3491 16.1861 21.1233 12.3831 24.0576 12.3707H33.0093C35.7016 12.3707 39.523 8.53044 39.4982 5.73245V4.33656H22.6866C15.3912 4.71501 10.6579 12.5072 10.6827 19.5735C10.6951 26.646 16.8615 34.3637 23.0526 34.4444H43.2824C46.8618 34.4692 52.2031 29.6611 52.2465 25.5169C52.2465 21.1741 52.2465 17.216 52.2465 12.8732H70.3485C71.9738 12.9539 73.6488 14.5111 73.6363 16.0372V28.0419C73.6239 30.7468 78.0595 34.4816 80.1004 34.5064H81.7506C81.7506 26.6646 81.7506 18.8228 81.7506 10.981C81.7878 8.12718 78.2208 4.28693 75.4664 4.27452C67.7058 4.27452 59.9451 4.27452 52.1845 4.27452C52.0294 1.68748 51.0554 0.0620395 49.2564 0Z" fill="#0171C8"/>
<path fill-rule="evenodd" clip-rule="evenodd" d="M18.9708 40.2393H20.4597V43.3226C20.4597 44.1353 19.7959 44.8116 18.9708 44.8116H17.3517V47.9384H15.8629V44.8116H14.2437C13.4311 44.8116 12.7549 44.1477 12.7549 43.3226V40.2517H14.2437V42.4168C14.2437 42.907 14.6594 43.3226 15.1495 43.3226H18.0527C18.5552 43.3226 18.9584 42.9194 18.9584 42.4168V40.2393H18.9708Z" fill="#0171C8"/>
<path fill-rule="evenodd" clip-rule="evenodd" d="M26.5017 43.3161H30.2362C30.658 43.3161 31.1419 43.1672 31.1419 42.6399C31.1419 42.1374 30.7263 41.7217 30.2362 41.7217H26.5017V43.3161ZM30.2362 44.8051H26.5017V46.4429H30.2362C30.7263 46.4429 31.1419 46.0273 31.1419 45.5247C31.1419 44.9292 30.7325 44.8051 30.2362 44.8051ZM24.9756 47.9319H26.5017H31.1419C31.9546 47.9319 32.6308 47.2681 32.6308 46.4429V44.8051C32.6308 44.3584 32.1035 44.0854 31.8739 44.0358C32.0787 43.9924 32.6308 43.8497 32.6308 43.3223V41.7155C32.6308 40.9028 31.967 40.2266 31.1419 40.2266H26.5017H24.9756V47.9319Z" fill="#0171C8"/>
<path fill-rule="evenodd" clip-rule="evenodd" d="M45.1991 46.4429V47.9319H45.1619H43.6731H39.0328C38.2201 47.9319 37.5439 47.2681 37.5439 46.4429V44.8051C37.5439 44.3584 38.0712 44.0854 38.3132 44.0358C38.1085 43.9924 37.5439 43.8497 37.5439 43.3223V41.7155C37.5439 40.9028 38.2077 40.2266 39.0328 40.2266H43.6731H45.1619V41.7155H43.6731H43.2388H39.9385C39.4484 41.7155 39.0328 42.1312 39.0328 42.6337C39.0328 43.161 39.5229 43.3099 39.9385 43.3099H43.2388H43.6731H45.1619V44.7989H43.6731H42.2835H39.9323C39.4422 44.7989 39.0266 44.923 39.0266 45.5309C39.0266 46.0335 39.4422 46.4491 39.9323 46.4491H42.2835H43.6731H45.1619H45.1991V46.4429Z" fill="#0171C8"/>
<path fill-rule="evenodd" clip-rule="evenodd" d="M55.7697 47.9814H57.4508C57.2896 47.0881 56.7064 45.4688 55.9372 44.8547C56.8305 44.8547 57.426 44.1102 57.426 43.3409V41.7341C57.426 40.9213 56.7623 40.2451 55.9372 40.2451H51.2969H49.8081V41.7341L49.7646 47.938H49.8081H51.2969V44.8547H54.2188C55.0687 45.6612 55.3975 46.933 55.7697 47.9814ZM51.2845 43.3161H55.0315C55.4533 43.3161 55.9372 43.1672 55.9372 42.6398C55.9372 42.1373 55.534 41.7217 55.0315 41.7217H51.2845V43.3161Z" fill="#0171C8"/>
<path fill-rule="evenodd" clip-rule="evenodd" d="M68.2946 47.9322V44.8736H63.493V48.0004H62.0166V40.3075H63.493V43.3971H68.2946V40.2393H69.7835V47.9322H68.2946Z" fill="#2B2A29"/>
<path fill-rule="evenodd" clip-rule="evenodd" d="M80.9314 40.2393H82.4203V46.4184C82.4203 47.2311 81.7565 47.9073 80.9314 47.9073H76.2105C75.3979 47.9073 74.7217 47.2435 74.7217 46.4184V40.2827H76.2105V45.5126C76.2105 46.0151 76.6262 46.4184 77.1287 46.4184H80.0319C80.5344 46.4184 80.95 46.0151 80.95 45.5126V40.2393H80.9314Z" fill="#2B2A29"/>
<path fill-rule="evenodd" clip-rule="evenodd" d="M92.4823 47.8512H88.5865C87.7738 47.8512 87.0977 47.1874 87.0977 46.3623V40.2266H88.5865V45.4565C88.5865 45.959 89.0021 46.3623 89.4922 46.3623H92.3955C92.4327 46.3623 92.4513 46.3623 92.4885 46.3623L92.4823 47.8512Z" fill="#2B2A29"/>
<path fill-rule="evenodd" clip-rule="evenodd" d="M7.66759 46.4426V47.9315H1.48885C0.676187 47.9315 0 47.2677 0 46.4426V41.7214C0 40.9087 0.66378 40.2324 1.48885 40.2324H7.62416V41.7214H2.40698C1.9169 41.7214 1.50126 42.137 1.50126 42.6396V45.543C1.50126 46.0455 1.90449 46.4612 2.40698 46.4612H7.66759V46.4426Z" fill="#0171C8"/>
<path fill-rule="evenodd" clip-rule="evenodd" d="M101.974 47.8512H98.0777C97.2651 47.8512 96.5889 47.1874 96.5889 46.3623V40.2266H98.0777V45.4565C98.0777 45.959 98.4934 46.3623 98.9834 46.3623H101.887C101.924 46.3623 101.943 46.3623 101.98 46.3623L101.974 47.8512Z" fill="#2B2A29"/>
<script xmlns=""/></svg>