<svg version="1.1" id="Layer_1" xmlns="http://www.w3.org/2000/svg" xmlns:xlink="http://www.w3.org/1999/xlink" x="0px" y="0px" viewBox="0 0 311.81 103.46" style="enable-background:new 0 0 311.81 103.46;" xml:space="preserve">
<style type="text/css">
	.st0{fill:#4A86B8;}
	.st1{fill:#FFFFFF;}
</style>
    <g>
	<path class="st0" d="M285.54,103.18h-51.78c-14.1,0-25.56-11.46-25.56-25.56V25.85c0-14.1,11.47-25.56,25.56-25.56h51.78
		c14.1,0,25.56,11.47,25.56,25.56v51.78C311.1,91.72,299.63,103.18,285.54,103.18z"></path>
        <g>
		<g>
			<path class="st0" d="M2.81,82.31c-0.58,0-1.08-0.2-1.49-0.61c-0.41-0.41-0.61-0.9-0.61-1.49V23.33c0-0.64,0.2-1.16,0.61-1.57
				c0.41-0.41,0.9-0.61,1.49-0.61h38.45c0.64,0,1.17,0.2,1.58,0.61c0.41,0.41,0.61,0.93,0.61,1.57v5.77c0,0.58-0.21,1.08-0.61,1.49
				c-0.41,0.41-0.94,0.61-1.58,0.61H12.51v15.47h26.83c0.64,0,1.16,0.19,1.57,0.57c0.41,0.38,0.61,0.89,0.61,1.53v5.42
				c0,0.64-0.21,1.15-0.61,1.53c-0.41,0.38-0.93,0.57-1.57,0.57H12.51v15.99h29.45c0.64,0,1.16,0.21,1.57,0.61
				c0.41,0.41,0.61,0.93,0.61,1.57v5.77c0,0.58-0.2,1.08-0.61,1.49c-0.41,0.41-0.93,0.61-1.57,0.61H2.81z"></path>
            <path class="st0" d="M67.21,83.19c-3.03,0-5.77-0.6-8.21-1.79c-2.45-1.19-4.38-2.79-5.81-4.81c-1.43-2.01-2.14-4.27-2.14-6.77
				c0-4.07,1.65-7.33,4.94-9.75c3.29-2.41,7.64-4.03,13.06-4.85l11.97-1.75v-1.83c0-2.45-0.61-4.34-1.83-5.68
				c-1.22-1.34-3.32-2.01-6.29-2.01c-2.09,0-3.8,0.42-5.11,1.27c-1.31,0.85-2.29,1.97-2.93,3.37c-0.47,0.76-1.13,1.13-2.01,1.13
				h-6.9c-0.64,0-1.12-0.17-1.44-0.52c-0.32-0.35-0.48-0.82-0.48-1.4c0.06-0.93,0.44-2.07,1.14-3.41c0.7-1.34,1.8-2.63,3.32-3.89
				c1.51-1.25,3.47-2.31,5.86-3.19C66.71,36.44,69.6,36,72.98,36c3.67,0,6.77,0.45,9.31,1.35c2.54,0.9,4.56,2.11,6.07,3.63
				c1.51,1.51,2.62,3.29,3.32,5.33c0.7,2.04,1.05,4.19,1.05,6.46v27.44c0,0.58-0.2,1.08-0.61,1.49c-0.41,0.41-0.9,0.61-1.49,0.61
				h-7.08c-0.64,0-1.15-0.2-1.53-0.61c-0.38-0.41-0.57-0.9-0.57-1.49v-3.41c-0.76,1.11-1.78,2.14-3.06,3.1
				c-1.28,0.96-2.84,1.75-4.68,2.36C71.88,82.88,69.71,83.19,67.21,83.19z M70.18,74.89c2.04,0,3.89-0.44,5.55-1.32
				c1.66-0.87,2.97-2.23,3.93-4.06c0.96-1.83,1.44-4.15,1.44-6.95v-1.83l-8.74,1.4c-3.44,0.52-6,1.37-7.69,2.54
				c-1.69,1.17-2.53,2.6-2.53,4.28c0,1.28,0.39,2.38,1.18,3.28c0.79,0.9,1.79,1.57,3.02,2.01C67.56,74.67,68.84,74.89,70.18,74.89z"></path>
            <path class="st0" d="M121.12,83.19c-3.5,0-6.48-0.41-8.96-1.22c-2.47-0.82-4.5-1.83-6.07-3.06c-1.57-1.22-2.74-2.45-3.5-3.67
				c-0.76-1.22-1.17-2.24-1.22-3.06c-0.06-0.64,0.13-1.15,0.57-1.53c0.44-0.38,0.92-0.57,1.44-0.57h6.9c0.23,0,0.44,0.03,0.61,0.09
				s0.41,0.23,0.7,0.53c0.75,0.64,1.56,1.31,2.4,2.01c0.84,0.7,1.85,1.29,3.01,1.78c1.17,0.5,2.62,0.75,4.37,0.75
				c2.27,0,4.18-0.45,5.72-1.36c1.54-0.9,2.31-2.2,2.31-3.88c0-1.22-0.33-2.22-1-2.97c-0.67-0.76-1.91-1.44-3.72-2.06
				c-1.81-0.61-4.37-1.27-7.69-1.97c-3.26-0.76-5.97-1.72-8.12-2.88c-2.15-1.17-3.76-2.62-4.81-4.37c-1.05-1.75-1.57-3.79-1.57-6.12
				c0-2.27,0.68-4.44,2.05-6.51c1.37-2.07,3.41-3.77,6.12-5.11c2.71-1.34,6.07-2.01,10.09-2.01c3.15,0,5.88,0.39,8.21,1.18
				c2.33,0.79,4.27,1.76,5.81,2.93c1.54,1.17,2.72,2.35,3.54,3.54c0.81,1.19,1.25,2.23,1.31,3.1c0.06,0.64-0.12,1.15-0.53,1.53
				c-0.41,0.38-0.87,0.57-1.4,0.57h-6.47c-0.29,0-0.55-0.06-0.79-0.17c-0.23-0.11-0.47-0.26-0.7-0.44c-0.64-0.58-1.34-1.19-2.1-1.83
				c-0.76-0.64-1.67-1.21-2.75-1.7c-1.08-0.49-2.49-0.74-4.24-0.74c-2.22,0-3.9,0.48-5.07,1.44c-1.17,0.96-1.75,2.17-1.75,3.63
				c0,0.99,0.27,1.85,0.83,2.58c0.55,0.73,1.67,1.41,3.36,2.05c1.69,0.64,4.25,1.31,7.69,2.01c3.9,0.7,7,1.74,9.31,3.1
				c2.3,1.37,3.93,2.94,4.9,4.72c0.96,1.78,1.44,3.75,1.44,5.9c0,2.62-0.77,4.98-2.31,7.08s-3.82,3.74-6.82,4.94
				S125.55,83.19,121.12,83.19z"></path>
            <path class="st0" d="M156.87,98.92c-0.47,0-0.87-0.18-1.22-0.53s-0.52-0.75-0.52-1.22c0-0.23,0.01-0.45,0.04-0.65
				c0.03-0.21,0.13-0.46,0.31-0.74l6.82-16.17l-16.78-39.59c-0.23-0.58-0.35-0.99-0.35-1.22c0.06-0.52,0.26-0.97,0.61-1.35
				c0.35-0.38,0.79-0.57,1.31-0.57h7.08c0.7,0,1.22,0.18,1.58,0.53c0.35,0.35,0.61,0.73,0.79,1.13l11.62,28.58l11.97-28.58
				c0.18-0.47,0.44-0.86,0.79-1.18c0.35-0.32,0.87-0.48,1.57-0.48h6.99c0.47,0,0.89,0.18,1.27,0.53c0.38,0.35,0.57,0.76,0.57,1.22
				c0,0.35-0.12,0.82-0.35,1.4l-24.73,57.24c-0.23,0.47-0.53,0.86-0.87,1.18s-0.87,0.48-1.57,0.48H156.87z"></path>
		</g>
	</g>
</g>
    <path class="st1" d="M228.44,82.32c-0.58,0-1.08-0.2-1.49-0.61c-0.41-0.41-0.61-0.9-0.61-1.49V23.25c0-0.58,0.2-1.08,0.61-1.49
	c0.41-0.41,0.9-0.61,1.49-0.61h8.21c0.64,0,1.15,0.2,1.53,0.61c0.38,0.41,0.57,0.9,0.57,1.49v56.97c0,0.58-0.19,1.08-0.57,1.49
	c-0.38,0.41-0.89,0.61-1.53,0.61H228.44z"></path>
    <path class="st1" d="M268.02,82.32c-0.58,0-1.08-0.2-1.48-0.61c-0.41-0.41-0.61-0.9-0.61-1.49V31.9h-16.17
	c-0.58,0-1.08-0.21-1.49-0.61c-0.41-0.41-0.61-0.9-0.61-1.49v-6.47c0-0.64,0.2-1.16,0.61-1.57c0.41-0.41,0.9-0.61,1.49-0.61h44.57
	c0.64,0,1.16,0.2,1.57,0.61c0.41,0.41,0.61,0.93,0.61,1.57v6.47c0,0.58-0.2,1.08-0.61,1.49c-0.41,0.41-0.93,0.61-1.57,0.61h-16.08
	v48.32c0,0.58-0.21,1.08-0.61,1.49c-0.41,0.41-0.93,0.61-1.58,0.61H268.02z"></path>
</svg>