<svg width="113" height="34" viewBox="0 0 113 34" fill="none" xmlns="http://www.w3.org/2000/svg">
    <path fill-rule="evenodd" clip-rule="evenodd" d="M2.09589 17C2.09589 25.2152 8.66447 31.875 16.7671 31.875C24.8698 31.875 31.4384 25.2152 31.4384 17C31.4384 8.78484 24.8698 2.12497 16.7671 2.12497C8.66447 2.12497 2.09589 8.78484 2.09589 17ZM16.7671 0C7.5069 0 0 7.6113 0 17C0 26.3887 7.5069 34 16.7671 34C26.0273 34 33.5342 26.3887 33.5342 17C33.5342 7.6113 26.0273 0 16.7671 0Z" fill="#3367D6"/>
    <path d="M11.3954 18.6605C10.7923 18.6605 10.4863 17.921 10.9073 17.4809L21.1839 6.73794C21.7545 6.14143 22.6841 6.88707 22.2492 7.59247L17.4817 15.3259H22.139C22.7417 15.3259 23.0479 16.0647 22.6276 16.505L12.3601 27.2615C11.7904 27.8584 10.8603 27.1145 11.2937 26.4086L16.0502 18.6605H11.3954Z" fill="#3367D6"/>
    <g clip-path="url(#clip0_4288:67703)">
        <path d="M76.517 23.318C75.049 23.2994 73.8272 23.1935 72.649 22.7919C71.156 22.2845 70.0122 21.3755 69.3483 19.9216C69.0428 19.2523 68.8745 18.5456 68.7904 17.8172C68.7031 17.0358 68.7 16.2544 68.7935 15.473C68.9649 14.0409 69.448 12.749 70.5327 11.7403C71.3431 10.9869 72.3249 10.5573 73.3877 10.3083C74.7342 9.99386 76.0963 9.94405 77.4708 10.0499C78.4775 10.1277 79.4625 10.3083 80.3975 10.7037C82.1492 11.4415 83.1996 12.7614 83.6234 14.5951C83.8572 15.6131 83.8946 16.6466 83.7886 17.6833C83.7014 18.5674 83.4925 19.4142 83.078 20.2049C82.4266 21.4377 81.4074 22.2409 80.1139 22.7203C79.3814 22.9912 78.624 23.1531 77.8448 23.2215C77.3305 23.2714 76.8069 23.2994 76.517 23.318ZM80.4598 16.6466C80.4162 16.273 80.3975 15.8932 80.3196 15.5228C80.0609 14.262 79.3315 13.3903 78.0786 13.0292C76.8755 12.6836 75.6599 12.6867 74.4568 13.0416C73.3565 13.3654 72.6459 14.1001 72.328 15.1959C72.0599 16.1298 72.0537 17.0793 72.303 18.0195C72.6147 19.2056 73.369 19.9777 74.5565 20.2983C75.7222 20.6159 76.8973 20.6127 78.0599 20.2859C79.1102 19.9932 79.8271 19.3177 80.1887 18.2841C80.3757 17.758 80.4349 17.207 80.4598 16.6466Z" fill="#3367D6"/>
        <path d="M103.989 17.8637C103.989 18.7571 103.989 19.6226 103.989 20.5005C106.841 20.5005 109.687 20.5005 112.545 20.5005C112.545 21.3815 112.545 22.2501 112.545 23.1249C108.615 23.1249 104.684 23.1249 100.745 23.1249C100.745 18.8163 100.745 14.5108 100.745 10.196C104.675 10.196 108.608 10.196 112.548 10.196C112.548 11.0646 112.548 11.9269 112.548 12.8111C109.693 12.8111 106.844 12.8111 103.989 12.8111C103.989 13.6734 103.989 14.5171 103.989 15.3794C106.42 15.3794 108.855 15.3794 111.295 15.3794C111.295 16.2137 111.295 17.0325 111.295 17.8668C108.867 17.8637 106.436 17.8637 103.989 17.8637Z" fill="#3367D6"/>
        <path d="M88.9625 19.2677C88.9625 20.5596 88.9625 21.8329 88.9625 23.1186C87.881 23.1186 86.8088 23.1186 85.7241 23.1186C85.7241 18.8131 85.7241 14.5077 85.7241 10.1898C85.7709 10.1867 85.8145 10.1804 85.8613 10.1804C88.5199 10.1804 91.1786 10.1742 93.8373 10.1836C94.6913 10.1867 95.5329 10.2956 96.3432 10.5758C97.5588 10.9961 98.338 11.8179 98.6559 13.0663C98.9178 14.0968 98.9583 15.1365 98.7339 16.1763C98.4378 17.5492 97.5713 18.4147 96.2591 18.863C95.4113 19.1525 94.5323 19.2552 93.6409 19.2614C92.1511 19.2739 90.6612 19.2677 89.1682 19.2677C89.109 19.2677 89.0467 19.2677 88.9625 19.2677ZM88.9656 16.8332C89.0124 16.8363 89.0498 16.8394 89.0841 16.8394C90.5023 16.8394 91.9204 16.8425 93.3386 16.8363C93.5942 16.8332 93.8591 16.8052 94.1085 16.746C94.7349 16.5966 95.243 16.2822 95.3957 15.6097C95.4674 15.3015 95.483 14.9715 95.4643 14.654C95.43 14.0314 95.1682 13.5271 94.5791 13.2406C94.2643 13.085 93.9277 12.9885 93.5786 12.9854C92.0669 12.976 90.5552 12.9791 89.0436 12.976C89.0186 12.976 88.9937 12.9823 88.9656 12.9854C88.9656 14.2649 88.9656 15.5412 88.9656 16.8332Z" fill="#3367D6"/>
        <path d="M51.8346 10.206C51.8346 11.0932 51.8346 11.968 51.8346 12.8397C51.1739 12.7992 50.5225 12.7463 49.871 12.7276C48.777 12.6934 47.6799 12.6716 46.5859 12.6653C45.922 12.6622 45.255 12.7058 44.6098 12.8677C44.3417 12.9331 44.0675 13.0265 43.8337 13.1666C43.2571 13.5183 43.2664 14.2562 43.8306 14.636C44.2046 14.8881 44.6285 15.0376 45.0648 15.1309C45.8534 15.2991 46.6482 15.4485 47.4399 15.6041C48.3968 15.7909 49.3474 15.9902 50.2451 16.3886C50.9869 16.7186 51.6133 17.1918 52.0248 17.9079C52.3894 18.5398 52.4611 19.2309 52.3832 19.9376C52.2398 21.2887 51.4076 22.095 50.2201 22.6025C49.4316 22.9387 48.5994 23.1006 47.7547 23.2002C46.2118 23.3807 44.6659 23.3216 43.1168 23.2655C42.2129 23.2344 41.3122 23.1784 40.4114 23.1317C40.349 23.1286 40.2898 23.1161 40.2275 23.1068C40.2275 22.2258 40.2275 21.3541 40.2275 20.4731C40.5423 20.4918 40.8509 20.5104 41.1625 20.526C41.9885 20.5665 42.8114 20.6194 43.6373 20.6381C44.6441 20.6567 45.6508 20.6599 46.6607 20.6412C47.2092 20.6318 47.7578 20.5634 48.2783 20.3672C48.4186 20.3143 48.5557 20.2458 48.6742 20.1586C49.1292 19.8255 49.1479 19.1593 48.7147 18.7982C48.3562 18.4994 47.923 18.3406 47.4742 18.2534C46.7635 18.1133 46.0467 18.0044 45.3329 17.8767C44.2513 17.6837 43.1698 17.4876 42.1599 17.0331C41.3059 16.6502 40.6015 16.0867 40.2742 15.1994C39.8285 13.9822 39.8909 12.7899 40.7231 11.7314C41.1625 11.171 41.7797 10.8597 42.4373 10.6231C43.1324 10.3741 43.8555 10.2402 44.5848 10.1499C46.2929 9.93825 47.9978 9.99117 49.7058 10.0815C50.3604 10.1157 51.0118 10.1499 51.6663 10.1842C51.7193 10.1873 51.7754 10.1966 51.8346 10.206Z" fill="#3367D6"/>
        <path d="M53.2437 10.1805C53.3216 10.1805 53.3652 10.1805 53.4088 10.1805C54.6494 10.1805 55.893 10.1805 57.1335 10.1774C57.2301 10.1774 57.2924 10.2023 57.3579 10.277C58.5672 11.6873 59.7797 13.0944 60.9921 14.5047C61.0108 14.5265 61.0233 14.5576 61.0482 14.6012C61.3849 14.1622 61.6966 13.7544 62.0082 13.3466C62.7937 12.3224 63.576 11.295 64.3646 10.2708C64.3989 10.2241 64.4706 10.1805 64.5267 10.1805C65.7204 10.1743 66.9173 10.1774 68.111 10.1774C68.1235 10.1774 68.1391 10.1836 68.1703 10.193C66.4061 12.4002 64.6544 14.5949 62.8965 16.7959C64.6856 18.9004 66.4685 20.9986 68.27 23.1156C68.2139 23.1218 68.1796 23.128 68.1422 23.128C66.8799 23.128 65.6176 23.128 64.3552 23.1311C64.2617 23.1311 64.2056 23.1 64.1464 23.0284C62.9464 21.6244 61.7433 20.2204 60.5402 18.8195C60.5184 18.7914 60.4935 18.7665 60.4592 18.7292C60.1693 19.1059 59.8857 19.4763 59.6051 19.8468C58.7979 20.9084 57.9906 21.9699 57.1802 23.0253C57.1335 23.0844 57.0431 23.1467 56.9714 23.1467C55.8088 23.1529 54.6431 23.1529 53.4805 23.1529C53.4462 23.1529 53.412 23.1498 53.3434 23.1467C55.1169 20.9208 56.8686 18.7198 58.6265 16.5157C56.8374 14.4113 55.0514 12.3099 53.2437 10.1805Z" fill="#3367D6"/>
    </g>
    <defs>
        <clipPath id="clip0_4288:67703">
            <rect width="72.5479" height="13.318" fill="white" transform="translate(40 10)"/>
        </clipPath>
    </defs>
<script xmlns=""/></svg>